PathFileType  4	(X/Y/Z) C:\Users\antoi\Documents\MyRepositories\mobilecap\ResultsAnalysis
DataRate	CameraRate	NumFrames	NumMarkers	Units	OrigDataRate	OrigDataStartFrame	OrigNumFrames
100.0	100.0	4	51	mm	100.0	1	140
Frame#	Time	r_knee			r_shank_antsup			r_ankle			r_calc			r_5meta			r_toe			L_knee			L_shank_antsup			L_ankle			L_calc			L_5meta			L_toe			r_sh2			r_sh3			r_sh4			L_sh2			L_sh3			r_thigh1			r_thigh2			r_thigh3			r_thigh4			r_thigh5			L_thigh1			L_thigh2			L_thigh3			L_thigh4			r.ASIS			r.PSIS			L.ASIS			L.PSIS			C7			R_Shoulder			L_Shoulder			R_Sternum			L_Sternum			R_humerus			R_elbow_med			R_elbow_lat			R_forearm			R_wrist_radius			R_wrist_ulna			L_humerus			L_elbow_med			L_elbow_lat			L_forearm			L_wrist_radius			L_wrist_ulna			R_HJC			L_HJC			R_HJC_reg			L_HJC_reg			
		X1	Y1	Z1	X2	Y2	Z2	X3	Y3	Z3	X4	Y4	Z4	X5	Y5	Z5	X6	Y6	Z6	X7	Y7	Z7	X8	Y8	Z8	X9	Y9	Z9	X10	Y10	Z10	X11	Y11	Z11	X12	Y12	Z12	X13	Y13	Z13	X14	Y14	Z14	X15	Y15	Z15	X16	Y16	Z16	X17	Y17	Z17	X18	Y18	Z18	X19	Y19	Z19	X20	Y20	Z20	X21	Y21	Z21	X22	Y22	Z22	X23	Y23	Z23	X24	Y24	Z24	X25	Y25	Z25	X26	Y26	Z26	X27	Y27	Z27	X28	Y28	Z28	X29	Y29	Z29	X30	Y30	Z30	X31	Y31	Z31	X32	Y32	Z32	X33	Y33	Z33	X34	Y34	Z34	X35	Y35	Z35	X36	Y36	Z36	X37	Y37	Z37	X38	Y38	Z38	X39	Y39	Z39	X40	Y40	Z40	X41	Y41	Z41	X42	Y42	Z42	X43	Y43	Z43	X44	Y44	Z44	X45	Y45	Z45	X46	Y46	Z46	X47	Y47	Z47	X48	Y48	Z48	X49	Y49	Z49	X50	Y50	Z50	X51	Y51	Z51	

1	0.00000000	-71.91761	526.49905	-72.40199	-0.02994	459.48041	-80.80649	88.09942	127.57403	-119.23557	36.50925	62.10660	-171.75134	229.69631	98.43813	-82.81393	267.02117	157.76452	-140.36426	-401.94655	520.19540	-361.25174	-430.48779	427.76024	-374.95254	-579.53957	131.17382	-288.79148	-671.18873	89.58613	-235.37681	-479.24929	44.77656	-310.51712	-420.91781	64.34723	-244.99773	27.82258	352.26483	-61.81240	-68.50283	446.29428	-45.13227	-51.80912	331.41643	-45.76194	-513.44792	466.31557	-366.88183	-551.19228	351.33838	-350.36225	-139.44371	845.44032	-51.29952	-93.96104	746.42521	-53.64170	-133.33684	701.03391	-21.11145	-239.59819	798.32111	-36.59452	-186.61460	694.81747	-41.13883	-254.12470	794.22699	-391.80779	-274.67331	657.43476	-371.07318	-361.94140	808.21237	-403.59934	-386.29081	674.01380	-388.13772	-184.70833	1035.75440	-86.58231	-371.06250	1031.40705	-138.15961	-204.55425	1039.68964	-341.67546	-382.33476	1044.79257	-246.27130	-275.37442	1582.32776	-248.62772	-222.10870	1524.76163	-69.13159	-220.92967	1492.18334	-406.52792	-169.15626	1480.86241	-205.40370	-167.47802	1472.11918	-260.01896	-259.84003	1368.55327	1.47872	-391.10946	1197.73109	-54.98208	-381.73776	1210.99180	28.44269	-360.92722	1038.08127	55.56956	-338.80871	942.27052	47.95466	-379.04182	956.23207	69.38815	-198.89005	1384.88420	-491.94406	-151.54050	1141.27435	-487.87292	-134.23481	1180.14180	-560.25578	-58.63519	1164.26588	-575.10935	98.00547	1076.83999	-581.78936	75.05328	1048.81690	-602.93900	-255.13419	912.64954	-105.42383	-280.29828	925.24994	-310.46023	-233.57308	935.88408	-129.73938	-250.95598	956.52651	-296.45854	
2	0.01000000	-59.72043	524.71894	-73.64655	11.53306	456.93673	-83.29791	95.54004	125.55966	-121.64735	41.01575	63.98343	-173.30114	235.37746	90.50485	-85.53788	275.49032	146.91095	-143.91375	-389.56547	519.13667	-360.54049	-418.68463	427.37767	-374.48181	-576.17486	135.15201	-289.64688	-668.80932	95.82387	-235.89825	-478.20023	44.55607	-310.62163	-419.45039	63.53608	-245.18725	39.41518	349.51049	-64.60489	-56.24387	444.24755	-46.55972	-40.39040	329.20714	-47.78843	-500.73200	468.13566	-366.71558	-541.50605	354.12942	-350.37437	-122.42080	845.02181	-52.43937	-78.06140	745.48805	-55.61695	-117.99744	701.09478	-22.78690	-222.86008	798.60248	-35.49866	-171.01660	694.47161	-41.35869	-240.30209	793.14512	-391.19291	-261.11351	656.25081	-371.20164	-348.40757	807.51740	-402.32119	-373.33170	673.56992	-387.51132	-168.50518	1035.87193	-85.89136	-355.16906	1031.12386	-137.20268	-189.08756	1038.24036	-340.97994	-366.65643	1043.86729	-245.37073	-261.79647	1581.94307	-247.58309	-207.91190	1524.07556	-68.38563	-207.78752	1491.99767	-405.89739	-155.31172	1480.61810	-204.80713	-154.46424	1471.82873	-259.53993	-244.88214	1367.53991	2.06463	-375.78964	1196.40158	-54.10799	-366.29628	1209.62668	29.28842	-346.13521	1036.76309	56.48480	-324.63988	940.73551	48.91525	-364.69867	954.97509	70.32993	-186.38746	1384.31859	-491.49135	-138.35036	1140.80255	-487.30538	-121.78914	1179.68537	-559.91721	-45.99960	1164.46234	-575.05710	111.61916	1078.79734	-581.67960	88.92717	1050.55913	-602.92291	-239.07055	912.62520	-103.91818	-264.65757	923.96861	-308.97183	-217.53732	935.68228	-128.35856	-235.25462	955.33545	-295.18817	
3	0.02000000	-47.46744	523.14236	-74.69449	23.04292	454.54647	-85.53134	102.71109	123.55504	-123.82806	45.32434	65.81698	-174.66841	240.76089	82.76446	-88.10213	283.49962	136.39943	-147.22115	-376.58131	518.19962	-359.83821	-406.49059	427.12996	-374.04595	-572.45245	139.46427	-290.43148	-666.07390	102.60889	-236.35201	-477.08296	44.45859	-310.69707	-417.92561	62.69602	-245.33439	50.81441	346.90874	-67.11114	-44.08287	442.39510	-47.77758	-29.12883	327.19677	-49.52960	-487.53190	470.12853	-366.47069	-531.40994	357.17689	-350.28749	-105.36889	844.71476	-53.45817	-62.23663	744.59758	-57.42932	-102.69800	701.13822	-24.31507	-206.14597	799.09079	-34.43613	-155.60651	694.36985	-41.55617	-226.15025	792.15882	-390.47916	-247.12061	655.16795	-371.13296	-334.50726	806.83073	-401.04461	-359.87258	673.08520	-386.82008	-152.23305	1036.16649	-85.23381	-339.17739	1031.05881	-136.15959	-173.56600	1036.97735	-340.27253	-350.90770	1043.11168	-244.38716	-248.16145	1581.73768	-246.58996	-193.66928	1523.62358	-67.67239	-194.59135	1491.97332	-405.29504	-141.38430	1480.58139	-204.23832	-141.24984	1471.74644	-259.07712	-229.80208	1366.76611	2.63973	-360.30506	1195.26704	-53.20674	-350.68819	1208.47482	30.16098	-331.13818	1035.66184	57.45526	-310.23204	939.43319	49.94696	-350.13801	953.93676	71.35330	-173.89773	1383.86241	-491.03517	-125.43365	1140.38326	-486.63061	-109.59078	1179.22061	-559.48742	-33.64316	1164.58046	-574.92642	124.86506	1080.56454	-581.50489	102.42506	1052.10375	-602.79472	-222.90950	912.79247	-102.38156	-248.98073	922.87185	-307.44125	-201.44903	935.73369	-126.94253	-219.53992	954.32015	-293.85611	
4	0.03000000	-35.12237	521.95222	-75.36907	34.45705	452.44664	-87.28216	109.39135	121.59811	-125.59581	49.26123	67.56339	-175.72510	245.59863	75.40606	-90.35702	290.69745	126.50798	-150.08263	-362.45426	517.45120	-359.17311	-393.55484	427.12746	-373.69255	-568.03416	144.38717	-291.09015	-662.64111	110.41893	-236.67492	-475.83522	44.60125	-310.71835	-416.28148	61.81951	-245.40885	61.86118	344.58839	-69.09020	-32.08511	440.91052	-48.60577	-18.16034	325.55838	-50.73749	-473.41777	472.43187	-366.08707	-520.52651	360.68726	-350.02171	-88.30632	844.63861	-54.24312	-46.55103	743.84195	-58.92496	-87.46284	701.19788	-25.54374	-189.49663	799.96681	-33.40625	-140.51182	694.71847	-41.66308	-211.38682	791.34861	-389.59520	-232.31658	654.26128	-370.73800	-319.93161	806.14749	-399.77474	-345.48128	672.51367	-386.02884	-135.85126	1036.78544	-84.63112	-323.03041	1031.39166	-134.97349	-157.95671	1036.04468	-339.54157	-335.04451	1042.66852	-243.26681	-234.41770	1581.85865	-245.68767	-179.33437	1523.59790	-67.01934	-181.30215	1492.24142	-404.74398	-127.31160	1480.91749	-203.72166	-127.70370	1472.03667	-258.64651	-214.50588	1366.43271	3.19886	-344.52249	1194.49267	-52.25835	-334.77514	1207.71633	31.08042	-315.76859	1034.96198	58.52352	-295.39399	938.55822	51.10561	-335.18080	953.30226	72.52313	-161.43054	1383.60748	-490.57181	-113.01874	1140.06081	-485.76130	-97.84237	1178.74401	-558.89058	-21.79300	1164.55779	-574.65095	137.44421	1081.97859	-581.21634	115.23487	1053.28321	-602.46134	-206.59633	913.31106	-100.78754	-233.25070	922.10696	-305.83438	-185.28588	936.23876	-125.46420	-203.80681	953.62235	-292.41670	
